<svg width="16" height="16" viewBox="0 0 16 16" fill="none" xmlns="http://www.w3.org/2000/svg">
<g clip-path="url(#clip0_377_760)">
<path d="M5.79004 1.15393C7.27577 0.644548 8.88332 0.627349 10.376 1.09827L10.6729 1.19885C11.3173 1.43909 11.9217 1.77272 12.4668 2.18811C12.3807 2.27312 12.2917 2.3616 12.2051 2.45178C11.8638 2.79422 11.5208 3.135 11.1787 3.4762C10.7348 3.15182 10.2394 2.90113 9.71094 2.73889L9.70703 2.73792C8.77302 2.45706 7.77963 2.43882 6.83594 2.68518C5.89388 2.9312 5.03728 3.43174 4.36035 4.13147C3.84588 4.65487 3.44078 5.27404 3.16699 5.95276L3.05762 6.24768C2.67163 7.38448 2.67164 8.61674 3.05762 9.75354V9.75452C3.41246 10.7974 4.06773 11.7101 4.93848 12.3795L5.11523 12.5104C5.71593 12.9379 6.39904 13.2361 7.12109 13.3854L7.13477 13.3873C7.8349 13.5175 8.55261 13.517 9.25293 13.3883L9.25391 13.3893C9.25577 13.389 9.2579 13.3876 9.25977 13.3873C9.26134 13.387 9.26307 13.3876 9.26465 13.3873L9.26367 13.3864C9.97359 13.2648 10.6512 12.9986 11.252 12.6012L11.2568 12.5973C11.7451 12.268 12.1619 11.8434 12.4824 11.3492C12.8029 10.8551 13.0205 10.3015 13.1221 9.72131L13.2588 8.94104H8.82324V7.18518H15.0244C15.1555 8.30714 15.0657 9.44551 14.7568 10.5358C14.434 11.6744 13.8069 12.7031 12.9434 13.5123C12.1144 14.2638 11.1054 14.7886 10.0137 15.0338L10.0078 15.0348C8.78065 15.3233 7.50091 15.3097 6.28027 14.9948C4.78625 14.592 3.46064 13.7212 2.49707 12.5104C1.53204 11.2976 0.981253 9.80728 0.925781 8.25842C0.870359 6.70964 1.31272 5.18352 2.18848 3.90491C3.06419 2.62647 4.32703 1.66287 5.79102 1.15491L5.79004 1.15393Z" stroke="#171717" stroke-width="1.33"/>
<path d="M5.57348 0.526245C7.30206 -0.067184 9.18171 -0.0508623 10.8997 0.572495C11.8432 0.925699 12.7077 1.46179 13.4435 2.14999C13.1935 2.41749 12.9297 2.66749 12.6747 2.92749C12.1897 3.41166 11.7051 3.89416 11.221 4.37499C10.7383 3.91342 10.1544 3.57098 9.51598 3.37499C8.69895 3.1283 7.82975 3.1114 7.00375 3.32617C6.17775 3.54094 5.42687 3.97907 4.83348 4.59249C4.31552 5.11941 3.92326 5.75652 3.68598 6.45624L1.09473 4.44999C2.02224 2.6107 3.62816 1.20377 5.57348 0.526245Z" fill="#E33629"/>
<path d="M0.407926 6.43745C0.547203 5.74719 0.778431 5.07873 1.09543 4.44995L3.68668 6.4612C3.34769 7.45946 3.34769 8.54169 3.68668 9.53995C2.82334 10.2066 1.95959 10.8766 1.09543 11.55C0.301864 9.97035 0.0598419 8.17058 0.407926 6.43745Z" fill="#F8BD00"/>
<path d="M8.15876 6.5188H15.5988C15.8533 7.91496 15.7844 9.35088 15.3975 10.7163C15.0416 11.9719 14.3501 13.1067 13.3975 13.9988C12.5613 13.3463 11.7213 12.6988 10.885 12.0463C11.2996 11.7666 11.6535 11.4062 11.9254 10.9865C12.1973 10.5668 12.3817 10.0965 12.4675 9.6038H8.15876C8.15751 8.5763 8.15876 7.54755 8.15876 6.5188Z" fill="#587DBD"/>
<path d="M1.09375 11.55C1.95792 10.8834 2.82167 10.2134 3.685 9.54004C4.01901 10.5203 4.65426 11.3699 5.5 11.9675C6.02751 12.3404 6.62691 12.5992 7.26 12.7275C7.88382 12.8435 8.52368 12.8435 9.1475 12.7275C9.76949 12.6223 10.3626 12.3881 10.8888 12.04C11.725 12.6925 12.565 13.34 13.4012 13.9925C12.4861 14.8247 11.3705 15.4049 10.1637 15.6763C8.83176 15.9894 7.44365 15.9744 6.11875 15.6325C5.07088 15.3528 4.09209 14.8595 3.24375 14.1838C2.34583 13.4709 1.61244 12.5725 1.09375 11.55Z" fill="#319F43"/>
</g>
<defs>
<clipPath id="clip0_377_760">
<rect width="16" height="16" fill="white"/>
</clipPath>
</defs>
</svg>
