<svg width="52" height="56" viewBox="0 0 52 56" fill="none" xmlns="http://www.w3.org/2000/svg">
<path d="M21.291 1.23682C24.2052 -0.412333 27.7958 -0.412377 30.71 1.23682L47.291 10.6206C50.2052 12.2698 52 15.3183 52 18.6167V37.3843C51.9999 40.6825 50.205 43.7302 47.291 45.3794L30.71 54.7632C27.7958 56.4124 24.2052 56.4124 21.291 54.7632L4.70996 45.3794C1.79588 43.7302 9.42691e-05 40.6826 0 37.3843V18.6167C0 15.3183 1.7958 12.2698 4.70996 10.6206L21.291 1.23682ZM25.9014 9.76318C25.9011 19.0191 14.3703 28.2749 7.0752 28.2749C14.3703 28.2749 25.9011 37.5307 25.9014 46.7866C25.9017 37.5309 37.4324 28.2753 44.7275 28.2749C37.4324 28.2745 25.9017 19.0189 25.9014 9.76318Z" fill="#0F0F0F"/>
<path d="M21.291 1.23682C24.2052 -0.412333 27.7958 -0.412377 30.71 1.23682L47.291 10.6206C50.2052 12.2698 52 15.3183 52 18.6167V37.3843C51.9999 40.6825 50.205 43.7302 47.291 45.3794L30.71 54.7632C27.7958 56.4124 24.2052 56.4124 21.291 54.7632L4.70996 45.3794C1.79588 43.7302 9.42691e-05 40.6826 0 37.3843V18.6167C0 15.3183 1.7958 12.2698 4.70996 10.6206L21.291 1.23682ZM25.9014 9.76318C25.9011 19.0191 14.3703 28.2749 7.0752 28.2749C14.3703 28.2749 25.9011 37.5307 25.9014 46.7866C25.9017 37.5309 37.4324 28.2753 44.7275 28.2749C37.4324 28.2745 25.9017 19.0189 25.9014 9.76318Z" fill="url(#paint0_linear_16_3588)"/>
<defs>
<linearGradient id="paint0_linear_16_3588" x1="26" y1="0.000488281" x2="26" y2="56.0005" gradientUnits="userSpaceOnUse">
<stop stop-color="#B36FD8"/>
<stop offset="1" stop-color="#D9AEEF"/>
</linearGradient>
</defs>
</svg>
