<svg width="127" height="22" viewBox="0 0 127 22" fill="none" xmlns="http://www.w3.org/2000/svg">
<rect opacity="0.8" width="8.66025" height="8.66025" rx="1" transform="matrix(0.866025 0.5 -0.866025 0.5 9.48438 9.56421)" fill="black"/>
<rect opacity="0.8" width="8.66025" height="8.66025" rx="1" transform="matrix(0.866025 0.5 -0.866025 0.5 9.48438 6.95325)" fill="#525252"/>
<rect opacity="0.8" width="8.66025" height="8.66025" rx="1" transform="matrix(0.866025 0.5 -0.866025 0.5 9.48438 3.99976)" fill="#939393"/>
<path d="M120.091 17.6285C119.135 17.6285 118.3 17.431 117.587 17.036C116.873 16.6283 116.313 16.0612 115.905 15.335C115.51 14.5959 115.312 13.7422 115.312 12.7739V12.5445C115.312 11.5634 115.51 10.7097 115.905 9.98341C116.3 9.24439 116.848 8.67738 117.549 8.28238C118.262 7.87465 119.084 7.67078 120.014 7.67078C120.919 7.67078 121.709 7.87465 122.384 8.28238C123.072 8.67738 123.607 9.23165 123.99 9.94519C124.372 10.6587 124.563 11.4933 124.563 12.449V13.1943H117.319C117.345 14.0226 117.619 14.6851 118.141 15.1821C118.676 15.6663 119.339 15.9083 120.129 15.9083C120.868 15.9083 121.422 15.7427 121.792 15.4114C122.174 15.0801 122.467 14.6979 122.671 14.2647L124.295 15.1056C124.117 15.4624 123.856 15.8383 123.512 16.2333C123.181 16.6283 122.741 16.9595 122.193 17.2271C121.645 17.4947 120.944 17.6285 120.091 17.6285ZM117.338 11.6844H122.556C122.505 10.9709 122.25 10.4166 121.792 10.0216C121.333 9.6139 120.734 9.41003 119.995 9.41003C119.256 9.41003 118.651 9.6139 118.179 10.0216C117.721 10.4166 117.44 10.9709 117.338 11.6844Z" fill="#0F0F0F"/>
<path d="M110.889 17.3607C110.316 17.3607 109.857 17.1887 109.513 16.8446C109.182 16.5006 109.016 16.0419 109.016 15.4685V9.60093H106.417V7.93812H109.016V4.82275H110.985V7.93812H113.794V9.60093H110.985V15.1245C110.985 15.5067 111.163 15.6979 111.52 15.6979H113.489V17.3607H110.889Z" fill="#0F0F0F"/>
<path d="M99.9001 17.6285C99.2248 17.6285 98.6196 17.5138 98.0844 17.2845C97.562 17.0551 97.1415 16.7175 96.823 16.2715C96.5172 15.8255 96.3643 15.284 96.3643 14.6469C96.3643 13.9971 96.5172 13.4619 96.823 13.0414C97.1415 12.6082 97.5684 12.2833 98.1035 12.0667C98.6514 11.8501 99.2694 11.7418 99.9574 11.7418H102.824V11.1302C102.824 10.5823 102.659 10.1427 102.327 9.8114C101.996 9.48011 101.486 9.31447 100.798 9.31447C100.123 9.31447 99.607 9.47374 99.2503 9.79229C98.8935 10.1108 98.6578 10.5249 98.5431 11.0346L96.7083 10.4421C96.8612 9.93245 97.1033 9.47374 97.4346 9.066C97.7786 8.64552 98.2309 8.30787 98.7916 8.05303C99.3522 7.79819 100.028 7.67078 100.818 7.67078C102.041 7.67078 103.003 7.98295 103.704 8.6073C104.404 9.23165 104.755 10.1172 104.755 11.264V15.1438C104.755 15.5261 104.933 15.7172 105.29 15.7172H106.093V17.3609H104.621C104.175 17.3609 103.812 17.2462 103.532 17.0169C103.251 16.7875 103.111 16.4754 103.111 16.0804V16.023H102.824C102.722 16.2142 102.57 16.4371 102.366 16.692C102.162 16.9468 101.862 17.1698 101.467 17.3609C101.072 17.5393 100.55 17.6285 99.9001 17.6285ZM100.187 16.0039C100.977 16.0039 101.614 15.7809 102.098 15.335C102.582 14.8763 102.824 14.2519 102.824 13.4619V13.2708H100.072C99.5497 13.2708 99.1292 13.3855 98.8107 13.6148C98.4921 13.8314 98.3329 14.1564 98.3329 14.5896C98.3329 15.0228 98.4985 15.3668 98.8298 15.6217C99.1611 15.8765 99.6134 16.0039 100.187 16.0039Z" fill="#0F0F0F"/>
<path d="M80.5879 17.3609V7.9383H82.5183V9.04684H82.8241C83.0025 8.71555 83.2892 8.42249 83.6841 8.16765C84.0791 7.91282 84.6143 7.7854 85.2896 7.7854C85.9904 7.7854 86.5511 7.93193 86.9715 8.22499C87.4048 8.50531 87.7297 8.86845 87.9463 9.31442H88.2521C88.4687 8.8812 88.7809 8.51805 89.1886 8.22499C89.6091 7.93193 90.2016 7.7854 90.9661 7.7854C91.5777 7.7854 92.1192 7.91282 92.5907 8.16765C93.0621 8.40975 93.438 8.77926 93.7183 9.27619C93.9986 9.76038 94.1388 10.3656 94.1388 11.0919V17.3609H92.1702V11.2448C92.1702 10.6714 92.0109 10.2318 91.6924 9.92602C91.3866 9.60748 90.947 9.4482 90.3736 9.4482C89.762 9.4482 89.2714 9.6457 88.9019 10.0407C88.5324 10.4357 88.3476 11.0027 88.3476 11.7417V17.3609H86.379V11.2448C86.379 10.6714 86.2198 10.2318 85.9012 9.92602C85.5954 9.60748 85.1558 9.4482 84.5824 9.4482C83.9708 9.4482 83.4803 9.6457 83.1108 10.0407C82.7413 10.4357 82.5565 11.0027 82.5565 11.7417V17.3609H80.5879Z" fill="#0F0F0F"/>
<path d="M75.6981 17.3608V7.93826H77.6667V17.3608H75.6981ZM76.692 6.65771C76.3097 6.65771 75.9848 6.53666 75.7172 6.29457C75.4624 6.03973 75.335 5.71482 75.335 5.31982C75.335 4.92483 75.4624 4.60628 75.7172 4.36419C75.9848 4.10935 76.3097 3.98193 76.692 3.98193C77.087 3.98193 77.4119 4.10935 77.6667 4.36419C77.9215 4.60628 78.049 4.92483 78.049 5.31982C78.049 5.71482 77.9215 6.03973 77.6667 6.29457C77.4119 6.53666 77.087 6.65771 76.692 6.65771Z" fill="#0F0F0F"/>
<path d="M70.4802 17.3607C69.9068 17.3607 69.4481 17.1887 69.1041 16.8446C68.7728 16.5006 68.6071 16.0419 68.6071 15.4685V9.60093H66.0078V7.93812H68.6071V4.82275H70.5757V7.93812H73.3853V9.60093H70.5757V15.1245C70.5757 15.5067 70.7541 15.6979 71.1109 15.6979H73.0795V17.3607H70.4802Z" fill="#0F0F0F"/>
<path d="M60.9683 17.6285C59.7706 17.6285 58.7767 17.3609 57.9867 16.8258C57.1968 16.2906 56.7126 15.4815 56.5342 14.3984L58.369 13.9589C58.4709 14.4813 58.6429 14.8954 58.885 15.2012C59.1271 15.507 59.4266 15.7236 59.7833 15.851C60.1529 15.9784 60.5478 16.0421 60.9683 16.0421C61.5927 16.0421 62.0705 15.9211 62.4018 15.679C62.7458 15.4369 62.9178 15.1247 62.9178 14.7425C62.9178 14.3602 62.7585 14.0799 62.44 13.9015C62.1215 13.7231 61.65 13.5766 61.0257 13.4619L60.3758 13.3472C59.7387 13.2326 59.159 13.0669 58.6366 12.8503C58.1142 12.6337 57.7001 12.3343 57.3943 11.952C57.0884 11.5698 56.9355 11.0792 56.9355 10.4803C56.9355 9.58842 57.2668 8.90036 57.9294 8.41617C58.592 7.91924 59.4712 7.67078 60.567 7.67078C61.6245 7.67078 62.491 7.91287 63.1663 8.39706C63.8543 8.86851 64.3003 9.51197 64.5042 10.3274L62.6694 10.8435C62.5547 10.2701 62.3126 9.86874 61.9431 9.63938C61.5736 9.39729 61.1149 9.27624 60.567 9.27624C60.0318 9.27624 59.6113 9.37818 59.3055 9.58205C58.9997 9.77317 58.8468 10.0471 58.8468 10.4039C58.8468 10.7861 58.9933 11.0665 59.2864 11.2449C59.5922 11.4232 59.9999 11.557 60.5096 11.6462L61.1786 11.7609C61.8539 11.8756 62.4719 12.0348 63.0325 12.2387C63.5931 12.4426 64.0327 12.7356 64.3513 13.1179C64.6826 13.5001 64.8482 14.0098 64.8482 14.6469C64.8482 15.5898 64.4978 16.3225 63.797 16.8449C63.0962 17.3673 62.1533 17.6285 60.9683 17.6285Z" fill="#0F0F0F"/>
<path d="M50.2655 17.6285C49.3098 17.6285 48.4753 17.431 47.7617 17.036C47.0482 16.6283 46.4875 16.0612 46.0798 15.335C45.6848 14.5959 45.4873 13.7422 45.4873 12.7739V12.5445C45.4873 11.5634 45.6848 10.7097 46.0798 9.98341C46.4748 9.24439 47.0227 8.67738 47.7235 8.28238C48.437 7.87465 49.2589 7.67078 50.189 7.67078C51.0937 7.67078 51.8837 7.87465 52.559 8.28238C53.2471 8.67738 53.7822 9.23165 54.1645 9.94519C54.5467 10.6587 54.7378 11.4933 54.7378 12.449V13.1943H47.4941C47.5196 14.0226 47.7936 14.6851 48.316 15.1821C48.8511 15.6663 49.5137 15.9083 50.3037 15.9083C51.0427 15.9083 51.597 15.7427 51.9665 15.4114C52.3488 15.0801 52.6418 14.6979 52.8457 14.2647L54.4703 15.1056C54.2919 15.4624 54.0307 15.8383 53.6867 16.2333C53.3554 16.6283 52.9158 16.9595 52.3679 17.2271C51.82 17.4947 51.1192 17.6285 50.2655 17.6285ZM47.5133 11.6844H52.731C52.68 10.9709 52.4252 10.4166 51.9665 10.0216C51.5078 9.6139 50.9089 9.41003 50.1699 9.41003C49.4309 9.41003 48.8257 9.6139 48.3542 10.0216C47.8955 10.4166 47.6152 10.9709 47.5133 11.6844Z" fill="#0F0F0F"/>
<path d="M36.1641 17.3608V3.98193H38.2282V17.3608H36.1641Z" fill="#0F0F0F"/>
<path d="M23.0947 17.3608L26.9173 3.98193H30.5487L34.3521 17.3608H32.2306L31.3514 14.2072H26.1145L25.2353 17.3608H23.0947ZM26.6306 12.296H30.8354L28.8859 5.26248H28.5801L26.6306 12.296Z" fill="#0F0F0F"/>
</svg>
